<svg t="1715273122787" class="icon" viewBox="0 0 1024 1024" version="1.1" xmlns="http://www.w3.org/2000/svg" p-id="5445" width="16" height="16"><path d="M661.059527 537.940867l-158.391919-158.391919-280.896755 280.896755-90.509668 181.019336 67.882251 67.882251 181.019336-90.509668L661.059527 537.940867z m45.254834 45.254834l-288.239352 288.239352L186.506024 987.219545 53.388929 854.102451l115.773179-231.557672L457.424087 334.282801l-45.254834-45.254834a112 112 0 0 1 0-158.391919l22.627417-22.627417a112 112 0 0 1 158.391919 0l45.254834 45.254834 45.254834-45.254834c68.730779-68.730779 180.170808-68.730779 248.901587 0s68.730779 180.170808 0 248.901587l-45.254834 45.254834 45.254834 45.254834a112 112 0 0 1 0 158.391919l-22.627417 22.627417a112 112 0 0 1-158.391919 0l-45.254834-45.254834z m90.509668-181.019336l90.509668-90.509668a112 112 0 1 0-158.391919-158.391919l-90.509668 90.509668-90.509668-90.509668a48 48 0 0 0-67.882251 0l-22.627417 22.627417a48 48 0 0 0 0 67.882251l339.411255 339.411255a48 48 0 0 0 67.882251 0l22.627417-22.627417a48 48 0 0 0 0-67.882251l-90.509668-90.509668z" fill="#F9974F" p-id="5446"></path><path d="M424.806666 513.367492m22.627417 22.627417l0 0q22.627417 22.627417 0 45.254834l0 0q-22.627417 22.627417-45.254834 0l0 0q-22.627417-22.627417 0-45.254834l0 0q22.627417-22.627417 45.254834 0Z" fill="#F9974F" p-id="5447"></path><path d="M356.924415 581.249743m22.627417 22.627417l0 0q22.627417 22.627417 0 45.254834l-56.568543 56.568543q-22.627417 22.627417-45.254834 0l0 0q-22.627417-22.627417 0-45.254834l56.568543-56.568543q22.627417-22.627417 45.254834 0Z" fill="#F9974F" p-id="5448"></path></svg>